# xmcd CD database file
#
# Track frame offsets:
#	300
#	23731
#	44339
#	70262
#	92334
#	119321
#	139929
#	161425
#	184400
#	207571
#	240655
#
# Disc length: 3572 seconds
#
# Revision: 0
# Processed by: cddbd v1.5.2PL0 Copyright (c) Steve Scherf et al.
# Submitted via: Feurio! 1.68 - http://www.feurio.com
#
DISCID=990df00b
DTITLE=Josh Smith - Don't Give Up On Me
DYEAR=1900
DGENRE=Blues
TTITLE0=Bad Side
TTITLE1=Made For Me
TTITLE2=Don't Give Up On Me
TTITLE3=I've Always Been
TTITLE4=That Ain't Me
TTITLE5=Letting You Go
TTITLE6=No One But Me
TTITLE7=Carry Me Through
TTITLE8=Sneaky Jo Turner
TTITLE9=The Middle
TTITLE10=That Ain't Love
EXTD=
EXTT0=
EXTT1=
EXTT2=
EXTT3=
EXTT4=
EXTT5=
EXTT6=
EXTT7=
EXTT8=
EXTT9=
EXTT10=
PLAYORDER=
